<svg xmlns="http://www.w3.org/2000/svg" xmlns:xlink="http://www.w3.org/1999/xlink" width="135" zoomAndPan="magnify" viewBox="0 0 101.25 30.000001" height="40" preserveAspectRatio="xMidYMid meet" version="1.0"><defs><g/><clipPath id="fb5d0fec42"><path d="M 1.269531 0 L 99.253906 0 L 99.253906 29.03125 L 1.269531 29.03125 Z M 1.269531 0 " clip-rule="nonzero"/></clipPath><clipPath id="e4542a0e7e"><path d="M 36 13 L 38.84375 13 L 38.84375 15 L 36 15 Z M 36 13 " clip-rule="nonzero"/></clipPath><clipPath id="ff752ef401"><path d="M 36 15 L 38.84375 15 L 38.84375 17 L 36 17 Z M 36 15 " clip-rule="nonzero"/></clipPath><clipPath id="cf0f439af9"><path d="M 4 23 L 10 23 L 10 28.921875 L 4 28.921875 Z M 4 23 " clip-rule="nonzero"/></clipPath><clipPath id="f5d8849ecf"><path d="M 17 23 L 23 23 L 23 28.921875 L 17 28.921875 Z M 17 23 " clip-rule="nonzero"/></clipPath><clipPath id="fe2ef944b2"><path d="M 1.828125 12.953125 L 38.84375 12.953125 L 38.84375 28.921875 L 1.828125 28.921875 Z M 1.828125 12.953125 " clip-rule="nonzero"/></clipPath><clipPath id="7b6d80ad36"><path d="M 78 13 L 90 13 L 90 29.03125 L 78 29.03125 Z M 78 13 " clip-rule="nonzero"/></clipPath><clipPath id="05ffdf0af0"><path d="M 73.269531 12 L 76 12 L 76 14 L 73.269531 14 Z M 73.269531 12 " clip-rule="nonzero"/></clipPath><clipPath id="18af468585"><path d="M 73.269531 13 L 76 13 L 76 15 L 73.269531 15 Z M 73.269531 13 " clip-rule="nonzero"/></clipPath><clipPath id="b7a0214999"><path d="M 89 4.359375 L 99.253906 4.359375 L 99.253906 29.03125 L 89 29.03125 Z M 89 4.359375 " clip-rule="nonzero"/></clipPath><clipPath id="d7f0bff0e7"><path d="M 91 4.359375 L 99.253906 4.359375 L 99.253906 29.03125 L 91 29.03125 Z M 91 4.359375 " clip-rule="nonzero"/></clipPath></defs><g clip-path="url(#fb5d0fec42)"><path fill="#ffffff" d="M 1.269531 0 L 99.980469 0 L 99.980469 36.289062 L 1.269531 36.289062 Z M 1.269531 0 " fill-opacity="1" fill-rule="nonzero"/><path fill="#ffffff" d="M 1.269531 0 L 99.253906 0 L 99.253906 29.03125 L 1.269531 29.03125 Z M 1.269531 0 " fill-opacity="1" fill-rule="nonzero"/><path fill="#ffbd59" d="M 1.269531 0 L 99.253906 0 L 99.253906 29.03125 L 1.269531 29.03125 Z M 1.269531 0 " fill-opacity="1" fill-rule="nonzero"/></g><path fill="#1ea6bc" d="M 19.40625 14.78125 L 16.152344 14.78125 L 16.152344 19.792969 L 22.351562 19.792969 L 21.410156 16.304688 C 21.167969 15.40625 20.34375 14.78125 19.40625 14.78125 Z M 19.40625 14.78125 " fill-opacity="1" fill-rule="nonzero"/><path fill="#1ea6bc" d="M 7.390625 19.792969 C 7.390625 20.421875 8.175781 20.933594 8.507812 20.933594 C 8.84375 20.933594 9.113281 20.421875 9.113281 19.792969 L 15.164062 19.792969 L 15.164062 14.78125 C 9.941406 14.78125 7.390625 16.078125 7.390625 19.792969 Z M 7.390625 19.792969 " fill-opacity="1" fill-rule="nonzero"/><g clip-path="url(#e4542a0e7e)"><path fill="#655f68" d="M 38.015625 13.75 C 38.273438 13.75 38.484375 13.953125 38.484375 14.207031 C 38.484375 14.460938 38.273438 14.664062 38.015625 14.664062 L 36.769531 14.664062 L 36.769531 13.75 Z M 38.015625 13.75 " fill-opacity="1" fill-rule="nonzero"/></g><g clip-path="url(#ff752ef401)"><path fill="#655f68" d="M 38.015625 15.992188 C 38.273438 15.992188 38.484375 16.195312 38.484375 16.449219 C 38.484375 16.703125 38.273438 16.90625 38.015625 16.90625 L 36.769531 16.90625 L 36.769531 15.992188 Z M 38.015625 15.992188 " fill-opacity="1" fill-rule="nonzero"/></g><path fill="#6fceae" d="M 36.769531 13.242188 L 36.769531 17.414062 L 34.382812 17.414062 C 33.671875 17.414062 33.097656 16.84375 33.097656 16.136719 L 33.097656 14.515625 C 33.097656 13.8125 33.671875 13.242188 34.382812 13.242188 Z M 36.769531 13.242188 " fill-opacity="1" fill-rule="nonzero"/><path fill="#9c9d9c" d="M 8.179688 25.890625 C 8.179688 26.023438 8.152344 26.148438 8.101562 26.273438 C 8.050781 26.394531 7.976562 26.5 7.882812 26.59375 C 7.789062 26.6875 7.679688 26.761719 7.554688 26.8125 C 7.433594 26.863281 7.304688 26.886719 7.167969 26.886719 C 7.035156 26.886719 6.90625 26.863281 6.78125 26.8125 C 6.660156 26.761719 6.550781 26.6875 6.457031 26.59375 C 6.359375 26.5 6.289062 26.394531 6.238281 26.273438 C 6.183594 26.148438 6.160156 26.023438 6.160156 25.890625 C 6.160156 25.757812 6.183594 25.628906 6.238281 25.507812 C 6.289062 25.386719 6.359375 25.277344 6.457031 25.183594 C 6.550781 25.089844 6.660156 25.019531 6.78125 24.96875 C 6.90625 24.917969 7.035156 24.890625 7.167969 24.890625 C 7.304688 24.890625 7.433594 24.917969 7.554688 24.96875 C 7.679688 25.019531 7.789062 25.089844 7.882812 25.183594 C 7.976562 25.277344 8.050781 25.386719 8.101562 25.507812 C 8.152344 25.628906 8.179688 25.757812 8.179688 25.890625 Z M 8.179688 25.890625 " fill-opacity="1" fill-rule="nonzero"/><path fill="#9c9d9c" d="M 21.175781 25.890625 C 21.175781 26.023438 21.148438 26.148438 21.097656 26.273438 C 21.046875 26.394531 20.972656 26.5 20.878906 26.59375 C 20.785156 26.6875 20.675781 26.761719 20.550781 26.8125 C 20.425781 26.863281 20.300781 26.886719 20.164062 26.886719 C 20.03125 26.886719 19.902344 26.863281 19.777344 26.8125 C 19.65625 26.761719 19.546875 26.6875 19.453125 26.59375 C 19.355469 26.5 19.285156 26.394531 19.234375 26.273438 C 19.179688 26.148438 19.15625 26.023438 19.15625 25.890625 C 19.15625 25.757812 19.179688 25.628906 19.234375 25.507812 C 19.285156 25.386719 19.355469 25.277344 19.453125 25.183594 C 19.546875 25.089844 19.65625 25.019531 19.777344 24.96875 C 19.902344 24.917969 20.03125 24.890625 20.164062 24.890625 C 20.300781 24.890625 20.425781 24.917969 20.550781 24.96875 C 20.675781 25.019531 20.785156 25.089844 20.878906 25.183594 C 20.972656 25.277344 21.046875 25.386719 21.097656 25.507812 C 21.148438 25.628906 21.175781 25.757812 21.175781 25.890625 Z M 21.175781 25.890625 " fill-opacity="1" fill-rule="nonzero"/><g clip-path="url(#cf0f439af9)"><path fill="#eaebec" d="M 7.390625 23.160156 C 8.816406 23.273438 9.941406 24.453125 9.941406 25.890625 C 9.941406 27.402344 8.699219 28.628906 7.167969 28.628906 C 5.640625 28.628906 4.402344 27.402344 4.402344 25.890625 C 4.402344 24.375 5.640625 23.148438 7.167969 23.148438 C 7.242188 23.148438 7.320312 23.152344 7.390625 23.160156 Z M 8.179688 25.890625 C 8.179688 25.335938 7.726562 24.890625 7.167969 24.890625 C 6.613281 24.890625 6.160156 25.335938 6.160156 25.890625 C 6.160156 26.441406 6.613281 26.886719 7.167969 26.886719 C 7.726562 26.886719 8.179688 26.441406 8.179688 25.890625 Z M 8.179688 25.890625 " fill-opacity="1" fill-rule="nonzero"/></g><g clip-path="url(#f5d8849ecf)"><path fill="#eaebec" d="M 20.164062 23.148438 C 21.695312 23.148438 22.9375 24.375 22.9375 25.890625 C 22.9375 27.402344 21.695312 28.628906 20.164062 28.628906 C 18.636719 28.628906 17.394531 27.402344 17.394531 25.890625 C 17.394531 24.375 18.636719 23.148438 20.164062 23.148438 Z M 21.175781 25.890625 C 21.175781 25.335938 20.722656 24.890625 20.164062 24.890625 C 19.605469 24.890625 19.15625 25.335938 19.15625 25.890625 C 19.15625 26.441406 19.605469 26.886719 20.164062 26.886719 C 20.722656 26.886719 21.175781 26.441406 21.175781 25.890625 Z M 21.175781 25.890625 " fill-opacity="1" fill-rule="nonzero"/></g><path fill="#52a7d7" d="M 33.097656 14.664062 L 33.097656 15.992188 L 32.027344 15.992188 C 31.46875 15.992188 31.019531 16.4375 31.019531 16.988281 L 31.019531 20.882812 C 31.019531 22.691406 29.535156 24.152344 27.707031 24.152344 L 24.347656 24.152344 L 24.328125 24.15625 C 24.292969 23.722656 24.246094 23.289062 24.1875 22.855469 L 27.480469 22.855469 C 28.683594 22.855469 29.660156 21.890625 29.660156 20.699219 L 29.660156 16.832031 C 29.660156 15.636719 30.640625 14.664062 31.851562 14.664062 Z M 33.097656 14.664062 " fill-opacity="1" fill-rule="nonzero"/><path fill="#ffdba2" d="M 14.65625 21.074219 C 14.9375 21.074219 15.164062 21.300781 15.164062 21.578125 C 15.164062 21.855469 14.9375 22.082031 14.65625 22.082031 L 13.308594 22.082031 C 13.023438 22.082031 12.796875 21.855469 12.796875 21.578125 C 12.796875 21.300781 13.023438 21.074219 13.308594 21.074219 Z M 14.65625 21.074219 " fill-opacity="1" fill-rule="nonzero"/><path fill="#ffdba2" d="M 8.507812 18.652344 C 8.84375 18.652344 9.113281 19.164062 9.113281 19.792969 C 9.113281 20.421875 8.84375 20.933594 8.507812 20.933594 C 8.175781 20.933594 7.390625 20.421875 7.390625 19.792969 C 7.390625 19.164062 8.175781 18.652344 8.507812 18.652344 Z M 8.507812 18.652344 " fill-opacity="1" fill-rule="nonzero"/><path fill="#ffdba2" d="M 3.015625 21.789062 C 3.4375 21.859375 3.707031 22.28125 3.589844 22.691406 C 3.5 23.003906 3.210938 23.210938 2.894531 23.210938 C 2.84375 23.210938 2.796875 23.207031 2.75 23.195312 L 2.179688 23.082031 C 2.179688 22.574219 2.347656 22.105469 2.628906 21.722656 Z M 3.015625 21.789062 " fill-opacity="1" fill-rule="nonzero"/><path fill="#6fceae" d="M 24.347656 24.386719 C 24.339844 24.308594 24.335938 24.234375 24.328125 24.15625 C 24.292969 23.722656 24.246094 23.289062 24.1875 22.855469 C 23.9375 21.015625 23.460938 19.171875 22.792969 17.347656 C 22.65625 16.976562 22.703125 16.566406 22.933594 16.242188 L 23.582031 15.320312 C 24.066406 14.636719 23.570312 13.695312 22.726562 13.695312 L 12.09375 13.695312 C 8.738281 13.695312 6.011719 16.390625 6.011719 19.707031 C 6.011719 20 5.894531 20.265625 5.699219 20.457031 C 5.503906 20.648438 5.238281 20.765625 4.941406 20.765625 L 4.523438 20.765625 C 3.746094 20.765625 3.054688 21.144531 2.628906 21.722656 L 3.015625 21.789062 C 3.4375 21.859375 3.707031 22.28125 3.589844 22.691406 C 3.5 23.003906 3.210938 23.210938 2.894531 23.210938 C 2.84375 23.210938 2.796875 23.207031 2.75 23.195312 L 2.179688 23.082031 L 2.179688 25.890625 L 4.402344 25.890625 C 4.402344 24.375 5.640625 23.148438 7.167969 23.148438 C 7.242188 23.148438 7.320312 23.152344 7.390625 23.160156 C 8.816406 23.273438 9.941406 24.453125 9.941406 25.890625 L 17.394531 25.890625 C 17.394531 24.375 18.636719 23.148438 20.164062 23.148438 C 21.695312 23.148438 22.9375 24.375 22.9375 25.890625 C 23.234375 25.890625 23.511719 25.796875 23.738281 25.640625 C 24.132812 25.371094 24.378906 24.902344 24.347656 24.386719 Z M 16.152344 14.78125 L 19.40625 14.78125 C 20.34375 14.78125 21.167969 15.40625 21.410156 16.304688 L 22.351562 19.792969 L 16.152344 19.792969 Z M 15.164062 14.78125 L 15.164062 19.792969 L 9.113281 19.792969 C 9.113281 20.421875 8.84375 20.933594 8.507812 20.933594 C 8.175781 20.933594 7.390625 20.421875 7.390625 19.792969 C 7.390625 16.078125 9.941406 14.78125 15.164062 14.78125 Z M 12.796875 21.578125 C 12.796875 21.300781 13.023438 21.074219 13.308594 21.074219 L 14.65625 21.074219 C 14.9375 21.074219 15.164062 21.300781 15.164062 21.578125 C 15.164062 21.855469 14.9375 22.082031 14.65625 22.082031 L 13.308594 22.082031 C 13.023438 22.082031 12.796875 21.855469 12.796875 21.578125 Z M 12.796875 21.578125 " fill-opacity="1" fill-rule="nonzero"/><path fill="#3a322b" d="M 7.171875 24.601562 C 6.453125 24.601562 5.867188 25.179688 5.867188 25.890625 C 5.867188 26.597656 6.453125 27.175781 7.171875 27.175781 C 7.886719 27.175781 8.472656 26.597656 8.472656 25.890625 C 8.472656 25.179688 7.886719 24.601562 7.171875 24.601562 Z M 7.171875 26.597656 C 6.773438 26.597656 6.453125 26.28125 6.453125 25.890625 C 6.453125 25.5 6.777344 25.179688 7.171875 25.179688 C 7.566406 25.179688 7.886719 25.5 7.886719 25.890625 C 7.886719 26.28125 7.566406 26.597656 7.171875 26.597656 Z M 7.171875 26.597656 " fill-opacity="1" fill-rule="nonzero"/><path fill="#3a322b" d="M 20.164062 24.601562 C 19.449219 24.601562 18.863281 25.179688 18.863281 25.890625 C 18.863281 26.597656 19.449219 27.175781 20.164062 27.175781 C 20.882812 27.175781 21.46875 26.597656 21.46875 25.890625 C 21.46875 25.179688 20.882812 24.601562 20.164062 24.601562 Z M 20.164062 26.597656 C 19.769531 26.597656 19.449219 26.28125 19.449219 25.890625 C 19.449219 25.5 19.769531 25.179688 20.164062 25.179688 C 20.558594 25.179688 20.882812 25.5 20.882812 25.890625 C 20.882812 26.28125 20.558594 26.597656 20.164062 26.597656 Z M 20.164062 26.597656 " fill-opacity="1" fill-rule="nonzero"/><path fill="#3a322b" d="M 14.65625 20.78125 L 13.304688 20.78125 C 12.863281 20.78125 12.503906 21.140625 12.503906 21.578125 C 12.503906 22.015625 12.863281 22.371094 13.304688 22.371094 L 14.65625 22.371094 C 15.097656 22.371094 15.457031 22.015625 15.457031 21.578125 C 15.457031 21.140625 15.097656 20.78125 14.65625 20.78125 Z M 14.65625 21.792969 L 13.304688 21.792969 C 13.1875 21.792969 13.085938 21.695312 13.085938 21.578125 C 13.085938 21.457031 13.1875 21.363281 13.304688 21.363281 L 14.65625 21.363281 C 14.773438 21.363281 14.875 21.457031 14.875 21.578125 C 14.875 21.695312 14.773438 21.792969 14.65625 21.792969 Z M 14.65625 21.792969 " fill-opacity="1" fill-rule="nonzero"/><g clip-path="url(#fe2ef944b2)"><path fill="#3a322b" d="M 38.019531 15.699219 L 37.0625 15.699219 L 37.0625 14.957031 L 38.019531 14.957031 C 38.4375 14.957031 38.777344 14.621094 38.777344 14.207031 C 38.777344 13.792969 38.4375 13.457031 38.019531 13.457031 L 37.0625 13.457031 L 37.0625 13.242188 C 37.0625 13.082031 36.929688 12.953125 36.769531 12.953125 L 34.386719 12.953125 C 33.5625 12.953125 32.882812 13.578125 32.808594 14.375 L 31.851562 14.375 C 30.484375 14.375 29.371094 15.476562 29.371094 16.832031 L 29.371094 20.699219 C 29.371094 21.730469 28.523438 22.566406 27.480469 22.566406 L 24.441406 22.566406 C 24.183594 20.816406 23.722656 19.035156 23.066406 17.25 C 22.964844 16.964844 23.003906 16.648438 23.171875 16.410156 L 23.824219 15.484375 C 24.109375 15.082031 24.144531 14.554688 23.910156 14.117188 C 23.679688 13.679688 23.226562 13.40625 22.726562 13.40625 L 12.09375 13.40625 C 8.582031 13.40625 5.722656 16.234375 5.722656 19.710938 C 5.722656 20.132812 5.371094 20.476562 4.945312 20.476562 L 4.523438 20.476562 C 3.648438 20.476562 2.875 20.902344 2.394531 21.554688 C 2.390625 21.5625 2.382812 21.566406 2.378906 21.574219 C 2.070312 22 1.886719 22.523438 1.886719 23.082031 L 1.886719 25.890625 C 1.886719 26.050781 2.019531 26.179688 2.179688 26.179688 L 4.121094 26.179688 C 4.269531 27.714844 5.582031 28.917969 7.171875 28.917969 C 8.761719 28.917969 10.070312 27.714844 10.21875 26.179688 L 17.117188 26.179688 C 17.265625 27.714844 18.574219 28.917969 20.164062 28.917969 C 21.761719 28.917969 23.078125 27.699219 23.214844 26.15625 C 23.582031 26.09375 23.917969 25.921875 24.179688 25.644531 C 24.488281 25.320312 24.648438 24.886719 24.640625 24.445312 L 27.707031 24.445312 C 29.695312 24.445312 31.308594 22.847656 31.308594 20.882812 L 31.308594 16.988281 C 31.308594 16.597656 31.632812 16.277344 32.027344 16.277344 L 32.808594 16.277344 C 32.882812 17.074219 33.558594 17.703125 34.386719 17.703125 L 36.769531 17.703125 C 36.929688 17.703125 37.0625 17.574219 37.0625 17.414062 L 37.0625 17.195312 L 38.019531 17.195312 C 38.4375 17.195312 38.773438 16.859375 38.773438 16.449219 C 38.773438 16.035156 38.4375 15.699219 38.019531 15.699219 Z M 38.019531 14.039062 C 38.113281 14.039062 38.191406 14.113281 38.191406 14.207031 C 38.191406 14.300781 38.113281 14.375 38.019531 14.375 L 37.0625 14.375 L 37.0625 14.039062 Z M 2.769531 22.039062 L 2.964844 22.074219 C 3.085938 22.09375 3.191406 22.164062 3.257812 22.265625 C 3.324219 22.371094 3.339844 22.492188 3.308594 22.613281 C 3.246094 22.824219 3.027344 22.957031 2.804688 22.914062 L 2.488281 22.851562 C 2.523438 22.554688 2.621094 22.28125 2.769531 22.039062 Z M 7.171875 28.339844 C 5.804688 28.339844 4.691406 27.238281 4.691406 25.890625 C 4.691406 24.539062 5.804688 23.441406 7.171875 23.441406 C 8.535156 23.441406 9.648438 24.539062 9.648438 25.890625 C 9.648438 27.238281 8.535156 28.339844 7.171875 28.339844 Z M 9.390625 19.503906 C 9.308594 18.835938 8.957031 18.363281 8.511719 18.363281 C 8.3125 18.363281 8.039062 18.472656 7.78125 18.65625 C 8.25 16.179688 10.40625 15.117188 14.875 15.074219 L 14.875 19.503906 Z M 8.820312 19.792969 C 8.820312 20.351562 8.589844 20.644531 8.511719 20.644531 C 8.320312 20.644531 7.683594 20.242188 7.683594 19.792969 C 7.683594 19.34375 8.320312 18.941406 8.511719 18.941406 C 8.589844 18.941406 8.820312 19.234375 8.820312 19.792969 Z M 20.164062 28.339844 C 18.800781 28.339844 17.6875 27.238281 17.6875 25.890625 C 17.6875 24.539062 18.800781 23.441406 20.164062 23.441406 C 21.53125 23.441406 22.644531 24.539062 22.644531 25.890625 C 22.644531 27.238281 21.53125 28.339844 20.164062 28.339844 Z M 23.753906 25.25 C 23.601562 25.40625 23.414062 25.511719 23.210938 25.5625 C 23.042969 24.046875 21.742188 22.863281 20.164062 22.863281 C 18.574219 22.863281 17.265625 24.066406 17.117188 25.601562 L 16.445312 25.601562 L 16.445312 20.082031 L 22.351562 20.082031 C 22.445312 20.082031 22.527344 20.039062 22.585938 19.96875 C 22.640625 19.898438 22.660156 19.804688 22.636719 19.71875 L 21.691406 16.230469 C 21.417969 15.207031 20.476562 14.492188 19.402344 14.492188 L 16.152344 14.492188 C 15.992188 14.492188 15.863281 14.625 15.863281 14.78125 L 15.863281 25.601562 L 10.21875 25.601562 C 10.085938 24.234375 9.035156 23.132812 7.683594 22.90625 L 7.683594 20.859375 C 7.964844 21.085938 8.289062 21.222656 8.511719 21.222656 C 8.957031 21.222656 9.308594 20.75 9.390625 20.082031 L 15.164062 20.082031 C 15.328125 20.082031 15.457031 19.953125 15.457031 19.792969 L 15.457031 14.78125 C 15.457031 14.625 15.328125 14.492188 15.164062 14.492188 C 9.511719 14.492188 7.097656 16.078125 7.097656 19.792969 L 7.097656 22.867188 C 5.542969 22.902344 4.269531 24.089844 4.121094 25.601562 L 2.472656 25.601562 L 2.472656 23.4375 L 2.691406 23.480469 C 2.757812 23.496094 2.824219 23.5 2.890625 23.5 C 3.335938 23.5 3.746094 23.207031 3.871094 22.769531 C 3.949219 22.496094 3.90625 22.199219 3.753906 21.960938 C 3.625 21.757812 3.425781 21.613281 3.199219 21.542969 C 3.554688 21.238281 4.019531 21.058594 4.523438 21.058594 L 4.945312 21.058594 C 5.695312 21.058594 6.308594 20.453125 6.308594 19.710938 C 6.308594 16.554688 8.902344 13.988281 12.09375 13.988281 L 22.726562 13.988281 C 23.011719 13.988281 23.261719 14.136719 23.394531 14.386719 C 23.527344 14.636719 23.507812 14.921875 23.34375 15.15625 L 22.691406 16.078125 C 22.414062 16.472656 22.347656 16.984375 22.519531 17.445312 C 23.382812 19.796875 23.898438 22.140625 24.054688 24.410156 C 24.078125 24.722656 23.96875 25.019531 23.753906 25.25 Z M 16.445312 19.503906 L 16.445312 15.070312 L 19.402344 15.070312 C 20.210938 15.070312 20.917969 15.609375 21.128906 16.382812 L 21.972656 19.503906 Z M 30.726562 16.988281 L 30.726562 20.882812 C 30.726562 22.527344 29.371094 23.867188 27.707031 23.867188 L 24.59375 23.867188 C 24.574219 23.625 24.546875 23.386719 24.515625 23.144531 L 27.480469 23.144531 C 28.84375 23.144531 29.953125 22.046875 29.953125 20.699219 L 29.953125 16.832031 C 29.953125 15.796875 30.804688 14.957031 31.851562 14.957031 L 32.804688 14.957031 L 32.804688 15.699219 L 32.027344 15.699219 C 31.308594 15.699219 30.726562 16.277344 30.726562 16.988281 Z M 36.476562 17.125 L 34.386719 17.125 C 33.835938 17.125 33.386719 16.683594 33.386719 16.140625 L 33.386719 14.515625 C 33.386719 13.972656 33.835938 13.53125 34.386719 13.53125 L 36.476562 13.53125 Z M 38.019531 16.617188 L 37.0625 16.617188 L 37.0625 16.277344 L 38.019531 16.277344 C 38.113281 16.277344 38.191406 16.355469 38.191406 16.449219 C 38.191406 16.542969 38.113281 16.617188 38.019531 16.617188 Z M 38.019531 16.617188 " fill-opacity="1" fill-rule="nonzero"/></g><g clip-path="url(#7b6d80ad36)"><path fill="#c6c1c4" d="M 87.925781 13.253906 C 86.699219 13.253906 85.273438 14.25 85.273438 15.53125 L 85.273438 26.742188 C 85.273438 27.539062 84.621094 28.191406 83.824219 28.191406 C 83.023438 28.191406 82.371094 27.539062 82.371094 26.742188 L 82.371094 15.53125 C 82.371094 14.277344 81.347656 13.253906 80.09375 13.253906 L 78.242188 13.253906 C 78.179688 13.253906 78.125 13.265625 78.074219 13.289062 C 78.109375 13.410156 78.132812 13.535156 78.132812 13.667969 C 78.132812 13.800781 78.109375 13.925781 78.074219 14.046875 C 78.125 14.070312 78.179688 14.085938 78.242188 14.085938 L 80.09375 14.085938 C 80.894531 14.085938 81.542969 14.734375 81.542969 15.53125 L 81.542969 26.742188 C 81.542969 27.996094 82.5625 29.019531 83.824219 29.019531 C 85.082031 29.019531 86.105469 27.996094 86.105469 26.742188 L 86.105469 15.53125 C 86.105469 14.753906 87.105469 14.085938 87.925781 14.085938 L 89.667969 14.085938 L 89.667969 13.253906 L 87.925781 13.253906 " fill-opacity="1" fill-rule="nonzero"/></g><g clip-path="url(#05ffdf0af0)"><path fill="#c6c1c4" d="M 75.136719 12.554688 L 73.683594 12.554688 C 73.457031 12.554688 73.269531 12.738281 73.269531 12.96875 C 73.269531 13.199219 73.457031 13.382812 73.683594 13.382812 L 75.136719 13.382812 L 75.25 13.363281 L 75.25 12.578125 L 75.136719 12.554688 " fill-opacity="1" fill-rule="nonzero"/></g><g clip-path="url(#18af468585)"><path fill="#c6c1c4" d="M 75.136719 13.953125 L 73.683594 13.953125 C 73.457031 13.953125 73.269531 14.136719 73.269531 14.367188 C 73.269531 14.597656 73.457031 14.78125 73.683594 14.78125 L 75.136719 14.78125 L 75.25 14.761719 L 75.25 13.972656 L 75.136719 13.953125 " fill-opacity="1" fill-rule="nonzero"/></g><g clip-path="url(#b7a0214999)"><path fill="#01a754" d="M 99.425781 30.320312 L 89.59375 30.320312 L 89.59375 9.496094 C 89.59375 6.78125 91.792969 4.582031 94.507812 4.582031 C 97.226562 4.582031 99.425781 6.78125 99.425781 9.496094 L 99.425781 30.320312 " fill-opacity="1" fill-rule="nonzero"/></g><g clip-path="url(#d7f0bff0e7)"><path fill="#1ab35a" d="M 95.554688 4.695312 C 94.554688 4.476562 93.597656 4.582031 92.75 4.90625 C 91.863281 5.796875 91.320312 7.023438 91.320312 8.378906 L 91.320312 21.097656 C 91.320312 25.574219 94.949219 29.203125 99.425781 29.203125 L 99.425781 9.65625 C 99.425781 7.3125 97.847656 5.191406 95.554688 4.695312 " fill-opacity="1" fill-rule="nonzero"/></g><path fill="#80cdf6" d="M 97.625 13.667969 L 91.390625 13.667969 L 91.390625 10.113281 L 97.625 10.113281 L 97.625 13.667969 " fill-opacity="1" fill-rule="nonzero"/><path fill="#a5ddf8" d="M 92.441406 10.113281 C 92.441406 11.828125 93.832031 13.21875 95.546875 13.21875 L 97.625 13.21875 L 97.625 10.113281 L 92.441406 10.113281 " fill-opacity="1" fill-rule="nonzero"/><path fill="#ffffff" d="M 96.835938 19.789062 C 96.800781 19.722656 96.734375 19.683594 96.664062 19.683594 L 94.433594 19.683594 L 95.75 16.601562 C 95.789062 16.511719 95.753906 16.40625 95.667969 16.355469 C 95.582031 16.308594 95.472656 16.332031 95.414062 16.410156 L 92.199219 20.695312 C 92.15625 20.753906 92.148438 20.832031 92.179688 20.898438 C 92.214844 20.964844 92.28125 21.007812 92.355469 21.007812 L 94.722656 21.007812 L 93.421875 24.332031 C 93.386719 24.425781 93.425781 24.527344 93.511719 24.574219 L 93.601562 24.597656 C 93.667969 24.597656 93.730469 24.566406 93.765625 24.511719 L 96.824219 19.988281 C 96.863281 19.929688 96.867188 19.851562 96.835938 19.789062 " fill-opacity="1" fill-rule="nonzero"/><path fill="#01a754" d="M 76.691406 15.207031 L 75.136719 15.207031 L 75.136719 12.105469 L 76.691406 12.105469 C 77.546875 12.105469 78.242188 12.800781 78.242188 13.65625 C 78.242188 14.511719 77.546875 15.207031 76.691406 15.207031 " fill-opacity="1" fill-rule="nonzero"/><path fill="#1ab35a" d="M 76.617188 12.105469 L 75.761719 12.105469 L 75.761719 13.347656 C 75.761719 14.089844 76.363281 14.6875 77.105469 14.6875 L 77.316406 14.6875 C 77.546875 14.6875 77.765625 14.632812 77.960938 14.542969 C 78.183594 14.226562 78.292969 13.824219 78.21875 13.386719 C 78.089844 12.632812 77.386719 12.105469 76.617188 12.105469 " fill-opacity="1" fill-rule="nonzero"/><g fill="#000000" fill-opacity="1"><g transform="translate(4.148434, 20.903228)"><g><path d="M 8.417969 -4.800781 C 7.664062 -2.769531 5.96875 -2 4.6875 -2 C 3.425781 -2 2.175781 -2.753906 2.175781 -3.808594 C 2.175781 -4.050781 2.207031 -4.320312 2.304688 -4.59375 L 4.320312 -10.210938 C 4.707031 -11.265625 5.363281 -11.425781 5.746094 -11.425781 C 6.113281 -11.425781 6.371094 -11.203125 6.371094 -10.722656 C 6.371094 -10.5 6.304688 -10.210938 6.175781 -9.890625 C 6.128906 -9.777344 6.113281 -9.667969 6.113281 -9.554688 C 6.113281 -8.996094 6.65625 -8.53125 7.28125 -8.53125 C 7.84375 -8.53125 8.464844 -8.914062 8.753906 -9.96875 C 8.867188 -10.386719 8.914062 -10.769531 8.914062 -11.105469 C 8.914062 -12.867188 7.523438 -13.890625 5.699219 -13.890625 C 4.527344 -13.890625 2.71875 -13.410156 1.871094 -11.011719 L -0.128906 -5.296875 C -0.304688 -4.800781 -0.398438 -4.257812 -0.398438 -3.777344 C -0.398438 -1.679688 1.519531 0 4.304688 0 C 6.53125 0 9.296875 -1.136719 10.289062 -4.273438 C 10.324219 -4.402344 10.339844 -4.511719 10.339844 -4.609375 C 10.339844 -5.167969 9.84375 -5.488281 9.347656 -5.488281 C 8.929688 -5.488281 8.53125 -5.28125 8.417969 -4.800781 Z M 8.417969 -4.800781 "/></g></g></g><g fill="#000000" fill-opacity="1"><g transform="translate(11.973269, 20.903228)"><g><path d="M 6.769531 -3.34375 C 6.769531 -3.328125 6.769531 -3.585938 6.707031 -3.890625 C 6.816406 -3.96875 6.929688 -4.097656 7.027344 -4.242188 C 7.296875 -4.640625 7.777344 -6.035156 7.777344 -6.671875 C 7.777344 -8.304688 6.433594 -9.394531 4.707031 -9.394531 C 3.199219 -9.394531 1.777344 -8.5625 1.265625 -7.136719 L 0.0976562 -3.839844 C -0.046875 -3.441406 -0.113281 -3.039062 -0.113281 -2.6875 C -0.113281 -1.007812 1.328125 0 2.960938 0 C 4.210938 0 5.34375 -0.398438 6.015625 -1.550781 C 6.304688 -1.472656 6.640625 -1.425781 6.976562 -1.425781 C 8.867188 -1.425781 10.355469 -2.769531 10.898438 -4.449219 C 10.945312 -4.625 10.980469 -4.785156 10.980469 -4.929688 C 10.980469 -5.519531 10.546875 -5.859375 10.082031 -5.859375 C 9.652344 -5.859375 9.203125 -5.601562 9.027344 -5.007812 C 8.675781 -4.015625 7.9375 -3.328125 6.992188 -3.328125 C 6.929688 -3.328125 6.832031 -3.328125 6.769531 -3.34375 Z M 5.28125 -5.808594 C 5.234375 -5.664062 5.183594 -5.539062 5.167969 -5.410156 C 4.289062 -5.503906 3.503906 -4.785156 3.503906 -3.824219 C 3.519531 -3.28125 3.792969 -2.992188 4.097656 -2.738281 C 3.890625 -2.175781 3.425781 -1.90625 2.929688 -1.90625 C 2.304688 -1.90625 2.144531 -2.289062 2.144531 -2.671875 C 2.144531 -2.976562 2.222656 -3.265625 2.289062 -3.425781 L 3.425781 -6.671875 C 3.617188 -7.203125 4.175781 -7.507812 4.671875 -7.507812 C 5.167969 -7.507812 5.488281 -7.167969 5.488281 -6.800781 C 5.488281 -6.511719 5.394531 -6.144531 5.28125 -5.808594 Z M 5.28125 -5.808594 "/></g></g></g><g fill="#000000" fill-opacity="1"><g transform="translate(20.326167, 20.903228)"><g><path d="M 14.179688 -5.363281 C 13.746094 -5.363281 13.285156 -5.121094 13.125 -4.609375 C 12.417969 -2.6875 11.539062 -1.90625 10.785156 -1.90625 C 10.464844 -1.90625 10.304688 -2.097656 10.304688 -2.335938 C 10.304688 -2.417969 10.304688 -2.496094 10.339844 -2.5625 L 11.699219 -6.289062 C 11.796875 -6.59375 11.859375 -6.914062 11.859375 -7.1875 C 11.859375 -8.546875 10.660156 -9.394531 9.203125 -9.394531 C 8.625 -9.394531 7.792969 -9.25 7.058594 -8.65625 C 6.722656 -9.042969 6.195312 -9.394531 5.265625 -9.394531 C 4.609375 -9.394531 4.226562 -9.203125 3.9375 -9.027344 C 3.761719 -9.265625 3.410156 -9.394531 3.058594 -9.394531 C 2.5625 -9.394531 2.046875 -9.15625 1.855469 -8.691406 L -0.703125 -1.3125 C -0.753906 -1.167969 -0.769531 -1.039062 -0.769531 -0.929688 C -0.769531 -0.335938 -0.257812 0 0.304688 0 C 0.847656 0 1.390625 -0.320312 1.617188 -0.960938 L 3.519531 -6.433594 C 3.855469 -7.121094 4.367188 -7.507812 4.847656 -7.507812 C 5.167969 -7.507812 5.394531 -7.328125 5.394531 -7.042969 C 5.394531 -6.960938 5.378906 -6.851562 5.328125 -6.738281 L 3.457031 -1.535156 C 3.375 -1.328125 3.328125 -1.121094 3.328125 -0.945312 C 3.328125 -0.335938 3.808594 0 4.351562 0 C 4.882812 0 5.457031 -0.320312 5.699219 -1.007812 L 7.539062 -6.210938 C 7.824219 -7.011719 8.433594 -7.507812 8.960938 -7.507812 C 9.25 -7.507812 9.472656 -7.3125 9.472656 -7.011719 C 9.472656 -6.914062 9.457031 -6.800781 9.410156 -6.65625 L 8.195312 -3.34375 C 8.066406 -2.976562 8.003906 -2.609375 8.003906 -2.273438 C 8.003906 -0.816406 9.203125 0 10.609375 0 C 12.195312 0 13.957031 -1.023438 15.058594 -4.226562 C 15.09375 -4.335938 15.125 -4.449219 15.125 -4.5625 C 15.125 -5.074219 14.660156 -5.363281 14.179688 -5.363281 Z M 14.179688 -5.363281 "/></g></g></g><g fill="#000000" fill-opacity="1"><g transform="translate(32.903508, 20.903228)"><g><path d="M 4.304688 -10.867188 C 5.023438 -10.867188 5.617188 -11.457031 5.617188 -12.195312 C 5.617188 -12.914062 5.023438 -13.492188 4.304688 -13.492188 C 3.585938 -13.492188 2.992188 -12.914062 2.992188 -12.195312 C 2.992188 -11.457031 3.585938 -10.867188 4.304688 -10.867188 Z M 2.144531 -2.703125 L 3.90625 -7.730469 C 3.96875 -7.9375 4.050781 -8.160156 4.050781 -8.320312 C 4.050781 -9.027344 3.519531 -9.394531 2.976562 -9.394531 C 2.480469 -9.394531 1.953125 -9.042969 1.695312 -8.289062 C 1.183594 -6.785156 0.511719 -4.882812 0 -3.394531 C -0.0976562 -3.074219 -0.222656 -2.640625 -0.222656 -2.367188 C -0.222656 -0.863281 1.023438 0 2.496094 0 C 4.066406 0 5.792969 -0.960938 6.914062 -4.273438 C 6.945312 -4.367188 6.960938 -4.464844 6.960938 -4.5625 C 6.960938 -5.058594 6.480469 -5.363281 6 -5.363281 C 5.570312 -5.363281 5.136719 -5.136719 4.945312 -4.640625 C 4.191406 -2.5625 3.34375 -1.90625 2.703125 -1.90625 C 2.335938 -1.90625 2.097656 -2.144531 2.097656 -2.449219 C 2.097656 -2.527344 2.113281 -2.609375 2.144531 -2.703125 Z M 2.144531 -2.703125 "/></g></g></g><g fill="#000000" fill-opacity="1"><g transform="translate(37.319979, 20.903228)"><g><path d="M 8.929688 -4.609375 C 8.226562 -2.6875 7.347656 -1.90625 6.59375 -1.90625 C 6.304688 -1.90625 6.144531 -2.046875 6.144531 -2.320312 C 6.144531 -2.433594 6.175781 -2.5625 6.226562 -2.71875 L 7.472656 -6.273438 C 7.585938 -6.59375 7.648438 -6.882812 7.648438 -7.152344 C 7.648438 -8.433594 6.5625 -9.394531 5.28125 -9.394531 C 4.65625 -9.394531 4.160156 -9.25 3.746094 -8.945312 C 3.648438 -9.234375 3.25 -9.394531 2.816406 -9.394531 C 2.367188 -9.394531 1.9375 -9.1875 1.777344 -8.738281 L -0.894531 -1.265625 C -0.945312 -1.121094 -0.960938 -0.992188 -0.960938 -0.863281 C -0.960938 -0.273438 -0.496094 0.03125 0.015625 0.03125 C 0.574219 0.03125 1.214844 -0.320312 1.457031 -1.039062 C 2.015625 -2.59375 2.785156 -4.785156 3.328125 -6.320312 C 3.761719 -7.121094 4.320312 -7.507812 4.769531 -7.507812 C 5.058594 -7.507812 5.265625 -7.3125 5.265625 -7.011719 C 5.265625 -6.898438 5.234375 -6.753906 5.183594 -6.609375 L 4.015625 -3.3125 C 3.890625 -2.945312 3.808594 -2.59375 3.808594 -2.257812 C 3.808594 -0.785156 5.023438 0 6.386719 0 C 8.019531 0 9.761719 -1.105469 10.867188 -4.226562 C 10.914062 -4.351562 10.945312 -4.480469 10.945312 -4.59375 C 10.945312 -5.105469 10.484375 -5.378906 10.003906 -5.378906 C 9.570312 -5.378906 9.089844 -5.136719 8.929688 -4.609375 Z M 8.929688 -4.609375 "/></g></g></g><g fill="#000000" fill-opacity="1"><g transform="translate(45.720876, 20.903228)"><g><path d="M 6.128906 -1.390625 L 8.339844 -7.585938 C 8.449219 -7.921875 8.5 -8.195312 8.5 -8.402344 C 8.5 -9.121094 8.003906 -9.265625 7.792969 -9.347656 C 7.699219 -9.378906 7.585938 -9.394531 7.472656 -9.394531 C 6.992188 -9.394531 6.496094 -9.15625 6.304688 -8.59375 C 5.761719 -9.171875 5.152344 -9.394531 4.304688 -9.394531 C 3.121094 -9.394531 1.871094 -8.722656 1.34375 -7.234375 L -0.015625 -3.359375 C -0.128906 -3.023438 -0.191406 -2.671875 -0.191406 -2.351562 C -0.191406 -1.089844 0.6875 -0.238281 1.777344 0 C 0.289062 0.289062 -1.617188 0.863281 -2.097656 2.449219 C -2.175781 2.71875 -2.207031 2.960938 -2.207031 3.199219 C -2.207031 4.753906 -0.769531 5.777344 0.800781 5.777344 C 2.382812 5.777344 3.871094 4.929688 4.527344 3.074219 L 5.265625 1.039062 C 7.554688 0.320312 9.90625 -0.929688 11.011719 -4.289062 C 11.058594 -4.417969 11.074219 -4.546875 11.074219 -4.65625 C 11.074219 -5.203125 10.660156 -5.519531 10.179688 -5.519531 C 9.746094 -5.519531 9.28125 -5.25 9.058594 -4.625 C 8.464844 -2.992188 7.394531 -2.03125 6.128906 -1.390625 Z M 5.441406 -6.335938 L 4.226562 -2.960938 C 3.90625 -2.351562 3.359375 -1.90625 2.816406 -1.90625 C 2.433594 -1.90625 2.144531 -2.097656 2.144531 -2.449219 C 2.144531 -2.527344 2.175781 -2.65625 2.207031 -2.769531 L 3.648438 -6.832031 C 3.808594 -7.28125 4.175781 -7.507812 4.527344 -7.507812 C 5.023438 -7.507812 5.457031 -7.136719 5.457031 -6.5625 C 5.457031 -6.496094 5.457031 -6.417969 5.441406 -6.335938 Z M 2.335938 1.777344 L 1.953125 2.863281 C 1.726562 3.457031 1.230469 3.761719 0.753906 3.761719 C 0.382812 3.761719 0.207031 3.535156 0.207031 3.25 C 0.207031 3.152344 0.238281 3.023438 0.289062 2.914062 C 0.511719 2.351562 1.296875 2.046875 2.335938 1.777344 Z M 2.335938 1.777344 "/></g></g></g><g fill="#000000" fill-opacity="1"><g transform="translate(54.265792, 20.903228)"><g/></g></g><g fill="#000000" fill-opacity="1"><g transform="translate(60.378443, 20.903228)"><g><path d="M 7.9375 -13.890625 C 6.355469 -13.890625 4.753906 -12.996094 4.226562 -11.378906 C 4.128906 -11.058594 4.066406 -10.753906 4.066406 -10.449219 C 4.066406 -9.058594 5.023438 -8.003906 5.9375 -6.882812 C 6.691406 -5.96875 7.394531 -5.21875 7.394531 -4.257812 C 7.394531 -2.960938 6.257812 -2.175781 5.21875 -2.175781 C 4.066406 -2.191406 3.152344 -2.863281 3.167969 -4 C 3.183594 -4.082031 3.183594 -4.160156 3.183594 -4.226562 C 3.183594 -5.136719 2.578125 -5.554688 1.953125 -5.554688 C 1.3125 -5.554688 0.65625 -5.089844 0.65625 -4.191406 C 0.574219 -1.648438 2.816406 0 5.234375 0 C 7.792969 0 10.113281 -2.015625 10.113281 -4.480469 C 10.113281 -6.144531 9.011719 -7.425781 8.035156 -8.515625 L 7.84375 -8.722656 C 7.234375 -9.378906 6.753906 -10.097656 6.753906 -10.691406 C 6.753906 -11.394531 7.570312 -11.699219 7.9375 -11.683594 C 8.433594 -11.652344 8.785156 -11.300781 9.058594 -10.753906 C 9.265625 -10.257812 9.683594 -10.035156 10.113281 -10.035156 C 10.691406 -10.035156 11.265625 -10.464844 11.265625 -11.203125 C 11.265625 -11.363281 11.25 -11.507812 11.203125 -11.683594 C 10.835938 -12.929688 9.570312 -13.890625 7.9375 -13.890625 Z M 7.9375 -13.890625 "/></g></g></g><g fill="#000000" fill-opacity="1"><g transform="translate(71.259603, 20.903228)"><g><path d="M 6.769531 -3.34375 C 6.769531 -3.328125 6.769531 -3.585938 6.707031 -3.890625 C 6.816406 -3.96875 6.929688 -4.097656 7.027344 -4.242188 C 7.296875 -4.640625 7.777344 -6.035156 7.777344 -6.671875 C 7.777344 -8.304688 6.433594 -9.394531 4.707031 -9.394531 C 3.199219 -9.394531 1.777344 -8.5625 1.265625 -7.136719 L 0.0976562 -3.839844 C -0.046875 -3.441406 -0.113281 -3.039062 -0.113281 -2.6875 C -0.113281 -1.007812 1.328125 0 2.960938 0 C 4.210938 0 5.34375 -0.398438 6.015625 -1.550781 C 6.304688 -1.472656 6.640625 -1.425781 6.976562 -1.425781 C 8.867188 -1.425781 10.355469 -2.769531 10.898438 -4.449219 C 10.945312 -4.625 10.980469 -4.785156 10.980469 -4.929688 C 10.980469 -5.519531 10.546875 -5.859375 10.082031 -5.859375 C 9.652344 -5.859375 9.203125 -5.601562 9.027344 -5.007812 C 8.675781 -4.015625 7.9375 -3.328125 6.992188 -3.328125 C 6.929688 -3.328125 6.832031 -3.328125 6.769531 -3.34375 Z M 5.28125 -5.808594 C 5.234375 -5.664062 5.183594 -5.539062 5.167969 -5.410156 C 4.289062 -5.503906 3.503906 -4.785156 3.503906 -3.824219 C 3.519531 -3.28125 3.792969 -2.992188 4.097656 -2.738281 C 3.890625 -2.175781 3.425781 -1.90625 2.929688 -1.90625 C 2.304688 -1.90625 2.144531 -2.289062 2.144531 -2.671875 C 2.144531 -2.976562 2.222656 -3.265625 2.289062 -3.425781 L 3.425781 -6.671875 C 3.617188 -7.203125 4.175781 -7.507812 4.671875 -7.507812 C 5.167969 -7.507812 5.488281 -7.167969 5.488281 -6.800781 C 5.488281 -6.511719 5.394531 -6.144531 5.28125 -5.808594 Z M 5.28125 -5.808594 "/></g></g></g><g fill="#000000" fill-opacity="1"><g transform="translate(79.612502, 20.903228)"><g><path d="M 6.769531 -3.34375 C 6.769531 -3.328125 6.769531 -3.585938 6.707031 -3.890625 C 6.816406 -3.96875 6.929688 -4.097656 7.027344 -4.242188 C 7.296875 -4.640625 7.777344 -6.035156 7.777344 -6.671875 C 7.777344 -8.304688 6.433594 -9.394531 4.707031 -9.394531 C 3.199219 -9.394531 1.777344 -8.5625 1.265625 -7.136719 L 0.0976562 -3.839844 C -0.046875 -3.441406 -0.113281 -3.039062 -0.113281 -2.6875 C -0.113281 -1.007812 1.328125 0 2.960938 0 C 4.210938 0 5.34375 -0.398438 6.015625 -1.550781 C 6.304688 -1.472656 6.640625 -1.425781 6.976562 -1.425781 C 8.867188 -1.425781 10.355469 -2.769531 10.898438 -4.449219 C 10.945312 -4.625 10.980469 -4.785156 10.980469 -4.929688 C 10.980469 -5.519531 10.546875 -5.859375 10.082031 -5.859375 C 9.652344 -5.859375 9.203125 -5.601562 9.027344 -5.007812 C 8.675781 -4.015625 7.9375 -3.328125 6.992188 -3.328125 C 6.929688 -3.328125 6.832031 -3.328125 6.769531 -3.34375 Z M 5.28125 -5.808594 C 5.234375 -5.664062 5.183594 -5.539062 5.167969 -5.410156 C 4.289062 -5.503906 3.503906 -4.785156 3.503906 -3.824219 C 3.519531 -3.28125 3.792969 -2.992188 4.097656 -2.738281 C 3.890625 -2.175781 3.425781 -1.90625 2.929688 -1.90625 C 2.304688 -1.90625 2.144531 -2.289062 2.144531 -2.671875 C 2.144531 -2.976562 2.222656 -3.265625 2.289062 -3.425781 L 3.425781 -6.671875 C 3.617188 -7.203125 4.175781 -7.507812 4.671875 -7.507812 C 5.167969 -7.507812 5.488281 -7.167969 5.488281 -6.800781 C 5.488281 -6.511719 5.394531 -6.144531 5.28125 -5.808594 Z M 5.28125 -5.808594 "/></g></g></g><g fill="#000000" fill-opacity="1"><g transform="translate(87.9654, 20.903228)"><g><path d="M 8.929688 -4.609375 C 8.226562 -2.6875 7.347656 -1.90625 6.59375 -1.90625 C 6.304688 -1.90625 6.144531 -2.046875 6.144531 -2.320312 C 6.144531 -2.433594 6.175781 -2.5625 6.226562 -2.71875 L 7.472656 -6.273438 C 7.585938 -6.59375 7.648438 -6.882812 7.648438 -7.152344 C 7.648438 -8.433594 6.5625 -9.394531 5.28125 -9.394531 C 4.65625 -9.394531 4.160156 -9.25 3.746094 -8.945312 C 3.648438 -9.234375 3.25 -9.394531 2.816406 -9.394531 C 2.367188 -9.394531 1.9375 -9.1875 1.777344 -8.738281 L -0.894531 -1.265625 C -0.945312 -1.121094 -0.960938 -0.992188 -0.960938 -0.863281 C -0.960938 -0.273438 -0.496094 0.03125 0.015625 0.03125 C 0.574219 0.03125 1.214844 -0.320312 1.457031 -1.039062 C 2.015625 -2.59375 2.785156 -4.785156 3.328125 -6.320312 C 3.761719 -7.121094 4.320312 -7.507812 4.769531 -7.507812 C 5.058594 -7.507812 5.265625 -7.3125 5.265625 -7.011719 C 5.265625 -6.898438 5.234375 -6.753906 5.183594 -6.609375 L 4.015625 -3.3125 C 3.890625 -2.945312 3.808594 -2.59375 3.808594 -2.257812 C 3.808594 -0.785156 5.023438 0 6.386719 0 C 8.019531 0 9.761719 -1.105469 10.867188 -4.226562 C 10.914062 -4.351562 10.945312 -4.480469 10.945312 -4.59375 C 10.945312 -5.105469 10.484375 -5.378906 10.003906 -5.378906 C 9.570312 -5.378906 9.089844 -5.136719 8.929688 -4.609375 Z M 8.929688 -4.609375 "/></g></g></g></svg>